# Made in Blockbench 5.0.7
mtllib chest_boat.mtl

o front
v -0.5 0.5625 -1
v -0.5 0.5625 -0.8750000000000001
v -0.5 0.1875 -1
v -0.5 0.1875 -0.8750000000000001
v 0.5 0.5625 -0.875
v 0.5 0.5625 -0.9999999999999999
v 0.5 0.1875 -0.875
v 0.5 0.1875 -0.9999999999999999
vt 0.015625 0.7734375
vt 0.140625 0.7734375
vt 0.140625 0.7265625
vt 0.015625 0.7265625
vt 0 0.7734375
vt 0.015625 0.7734375
vt 0.015625 0.7265625
vt 0 0.7265625
vt 0.15625 0.7734375
vt 0.28125 0.7734375
vt 0.28125 0.7265625
vt 0.15625 0.7265625
vt 0.140625 0.7734375
vt 0.15625 0.7734375
vt 0.15625 0.7265625
vt 0.140625 0.7265625
vt 0.140625 0.7734375
vt 0.015625 0.7734375
vt 0.015625 0.7890625
vt 0.140625 0.7890625
vt 0.265625 0.7890625
vt 0.140625 0.7890625
vt 0.140625 0.7734375
vt 0.265625 0.7734375
vn -1.2246467991473532e-16 0 1
vn -1 0 -1.2246467991473532e-16
vn 1.2246467991473532e-16 0 -1
vn 1 0 1.2246467991473532e-16
vn 0 1 0
vn 0 -1 0
usemtl m_3dbf5aa9-9623-61d0-35d0-b0f0af611c5d
f 4/4/1 7/3/1 5/2/1 2/1/1
f 3/8/2 4/7/2 2/6/2 1/5/2
f 8/12/3 3/11/3 1/10/3 6/9/3
f 7/16/4 8/15/4 6/14/4 5/13/4
f 6/20/5 1/19/5 2/18/5 5/17/5
f 7/24/6 4/23/6 3/22/6 8/21/6
o left
v -0.6249999999999998 0.5625 0.875
v -0.49999999999999983 0.5625 0.875
v -0.6249999999999998 0.1875 0.875
v -0.49999999999999983 0.1875 0.875
v -0.5000000000000002 0.5625 -0.875
v -0.6250000000000002 0.5625 -0.875
v -0.5000000000000002 0.1875 -0.875
v -0.6250000000000002 0.1875 -0.875
vt 0.015625 0.6484375
vt 0.234375 0.6484375
vt 0.234375 0.6015625
vt 0.015625 0.6015625
vt 0 0.6484375
vt 0.015625 0.6484375
vt 0.015625 0.6015625
vt 0 0.6015625
vt 0.25 0.6484375
vt 0.46875 0.6484375
vt 0.46875 0.6015625
vt 0.25 0.6015625
vt 0.234375 0.6484375
vt 0.25 0.6484375
vt 0.25 0.6015625
vt 0.234375 0.6015625
vt 0.234375 0.6484375
vt 0.015625 0.6484375
vt 0.015625 0.6640625
vt 0.234375 0.6640625
vt 0.453125 0.6640625
vt 0.234375 0.6640625
vt 0.234375 0.6484375
vt 0.453125 0.6484375
vn 1 0 -2.220446049250313e-16
vn 2.220446049250313e-16 0 1
vn -1 0 2.220446049250313e-16
vn -2.220446049250313e-16 0 -1
vn 0 1 0
vn 0 -1 0
usemtl m_3dbf5aa9-9623-61d0-35d0-b0f0af611c5d
f 12/28/7 15/27/7 13/26/7 10/25/7
f 11/32/8 12/31/8 10/30/8 9/29/8
f 16/36/9 11/35/9 9/34/9 14/33/9
f 15/40/10 16/39/10 14/38/10 13/37/10
f 14/44/11 9/43/11 10/42/11 13/41/11
f 15/48/12 12/47/12 11/46/12 16/45/12
o right
v 0.6250000000000002 0.5625 -0.875
v 0.5000000000000002 0.5625 -0.875
v 0.6250000000000002 0.1875 -0.875
v 0.5000000000000002 0.1875 -0.875
v 0.49999999999999983 0.5625 0.875
v 0.6249999999999998 0.5625 0.875
v 0.49999999999999983 0.1875 0.875
v 0.6249999999999998 0.1875 0.875
vt 0.015625 0.7109375
vt 0.234375 0.7109375
vt 0.234375 0.6640625
vt 0.015625 0.6640625
vt 0 0.7109375
vt 0.015625 0.7109375
vt 0.015625 0.6640625
vt 0 0.6640625
vt 0.25 0.7109375
vt 0.46875 0.7109375
vt 0.46875 0.6640625
vt 0.25 0.6640625
vt 0.234375 0.7109375
vt 0.25 0.7109375
vt 0.25 0.6640625
vt 0.234375 0.6640625
vt 0.234375 0.7109375
vt 0.015625 0.7109375
vt 0.015625 0.7265625
vt 0.234375 0.7265625
vt 0.453125 0.7265625
vt 0.234375 0.7265625
vt 0.234375 0.7109375
vt 0.453125 0.7109375
vn -1 0 -2.220446049250313e-16
vn 2.220446049250313e-16 0 -1
vn 1 0 2.220446049250313e-16
vn -2.220446049250313e-16 0 1
vn 0 1 0
vn 0 -1 0
usemtl m_3dbf5aa9-9623-61d0-35d0-b0f0af611c5d
f 20/52/13 23/51/13 21/50/13 18/49/13
f 19/56/14 20/55/14 18/54/14 17/53/14
f 24/60/15 19/59/15 17/58/15 22/57/15
f 23/64/16 24/63/16 22/62/16 21/61/16
f 22/68/17 17/67/17 18/66/17 21/65/17
f 23/72/18 20/71/18 19/70/18 24/69/18
o back
v 0.5625 0.5625 1
v 0.5625 0.5625 0.875
v 0.5625 0.1875 1
v 0.5625 0.1875 0.875
v -0.5625 0.5625 0.875
v -0.5625 0.5625 1
v -0.5625 0.1875 0.875
v -0.5625 0.1875 1
vt 0.015625 0.8359375
vt 0.15625 0.8359375
vt 0.15625 0.7890625
vt 0.015625 0.7890625
vt 0 0.8359375
vt 0.015625 0.8359375
vt 0.015625 0.7890625
vt 0 0.7890625
vt 0.171875 0.8359375
vt 0.3125 0.8359375
vt 0.3125 0.7890625
vt 0.171875 0.7890625
vt 0.15625 0.8359375
vt 0.171875 0.8359375
vt 0.171875 0.7890625
vt 0.15625 0.7890625
vt 0.15625 0.8359375
vt 0.015625 0.8359375
vt 0.015625 0.8515625
vt 0.15625 0.8515625
vt 0.296875 0.8515625
vt 0.15625 0.8515625
vt 0.15625 0.8359375
vt 0.296875 0.8359375
vn 0 0 -1
vn 1 0 0
vn 0 0 1
vn -1 0 0
vn 0 1 0
vn 0 -1 0
usemtl m_3dbf5aa9-9623-61d0-35d0-b0f0af611c5d
f 28/76/19 31/75/19 29/74/19 26/73/19
f 27/80/20 28/79/20 26/78/20 25/77/20
f 32/84/21 27/83/21 25/82/21 30/81/21
f 31/88/22 32/87/22 30/86/22 29/85/22
f 30/92/23 25/91/23 26/90/23 29/89/23
f 31/96/24 28/95/24 27/94/24 32/93/24
o bottom
v 0.5 0.18749999999999994 0.875
v 0.5 -5.551115123125783e-17 0.875
v -0.5 0.18749999999999972 0.875
v -0.49999999999999994 -2.7755575615628914e-16 0.875
v 0.5 3.3306690738754696e-16 -0.875
v 0.5 0.18750000000000033 -0.875
v -0.49999999999999994 1.1102230246251565e-16 -0.875
v -0.5 0.1875000000000001 -0.875
vt 0.0234375 0.9765625
vt 0.2421875 0.9765625
vt 0.2421875 0.8515625
vt 0.0234375 0.8515625
vt 0 0.9765625
vt 0.0234375 0.9765625
vt 0.0234375 0.8515625
vt 0 0.8515625
vt 0.265625 0.9765625
vt 0.484375 0.9765625
vt 0.484375 0.8515625
vt 0.265625 0.8515625
vt 0.2421875 0.9765625
vt 0.265625 0.9765625
vt 0.265625 0.8515625
vt 0.2421875 0.8515625
vt 0.2421875 0.9765625
vt 0.0234375 0.9765625
vt 0.0234375 1
vt 0.2421875 1
vt 0.4609375 1
vt 0.2421875 1
vt 0.2421875 0.9765625
vt 0.4609375 0.9765625
vn 2.220446049250313e-16 -1 -2.220446049250313e-16
vn 4.930380657631324e-32 -2.220446049250313e-16 1
vn -2.220446049250313e-16 1 2.220446049250313e-16
vn -4.930380657631324e-32 2.220446049250313e-16 -1
vn 1 2.220446049250313e-16 4.930380657631324e-32
vn -1 -2.220446049250313e-16 -4.930380657631324e-32
usemtl m_3dbf5aa9-9623-61d0-35d0-b0f0af611c5d
f 36/100/25 39/99/25 37/98/25 34/97/25
f 35/104/26 36/103/26 34/102/26 33/101/26
f 40/108/27 35/107/27 33/106/27 38/105/27
f 39/112/28 40/111/28 38/110/28 37/109/28
f 38/116/29 33/115/29 34/114/29 37/113/29
f 39/120/30 36/119/30 35/118/30 40/117/30
o paddle_left
v -1.111832458274375 0.13733837170169721 -0.4316690664977688
v -0.4049487312130635 0.9134976558655512 -0.027296513000177436
v -1.0532437034236857 0.04927467550170761 -0.3650571815473955
v -0.3463599763623742 0.8254339596655617 0.039315371950195854
v -0.3273380870862078 0.892701946447701 -0.12305206839004956
v -1.0342218141475195 0.11654266228384697 -0.5274246218876409
v -0.2687493322355185 0.8046382502477114 -0.056440183439676384
v -0.9756330592968301 0.028478966083857415 -0.46081273693726776
vt 0.625 0.859375
vt 0.640625 0.859375
vt 0.640625 0.84375
vt 0.625 0.84375
vt 0.484375 0.859375
vt 0.625 0.859375
vt 0.625 0.84375
vt 0.484375 0.84375
vt 0.78125 0.859375
vt 0.796875 0.859375
vt 0.796875 0.84375
vt 0.78125 0.84375
vt 0.640625 0.859375
vt 0.78125 0.859375
vt 0.78125 0.84375
vt 0.640625 0.84375
vt 0.640625 0.859375
vt 0.625 0.859375
vt 0.625 1
vt 0.640625 1
vt 0.65625 1
vt 0.640625 1
vt 0.640625 0.859375
vt 0.65625 0.859375
vn 0.628341090721166 0.6899193637012035 0.359442269775637
vn -0.6208851530148456 0.16636567534280186 0.7660444431189782
vn -0.628341090721166 -0.6899193637012035 -0.359442269775637
vn 0.6208851530148456 -0.16636567534280186 -0.7660444431189782
vn -0.46871003880551493 0.7045095695999166 -0.5328950796029862
vn 0.46871003880551493 -0.7045095695999166 0.5328950796029862
usemtl m_3dbf5aa9-9623-61d0-35d0-b0f0af611c5d
f 44/124/31 47/123/31 45/122/31 42/121/31
f 43/128/32 44/127/32 42/126/32 41/125/32
f 48/132/33 43/131/33 41/130/33 46/129/33
f 47/136/34 48/135/34 46/134/34 45/133/34
f 46/140/35 41/139/35 42/138/35 45/137/35
f 47/144/36 44/143/36 43/142/36 48/141/36
o paddle_left
v -1.2782970322126181 0.18320439339374006 -0.5764692998675883
v -1.0033978050221082 0.4850441150130166 -0.4192133068407473
v -1.1025307676605502 -0.0809866952062287 -0.37663364501646857
v -0.8276315404700402 0.22085302641304785 -0.21937765198962755
v -0.9645924829586803 0.4746462603040915 -0.4670910845356834
v -1.2394917101491902 0.172806538684815 -0.6243470775625245
v -0.7888262184066124 0.21045517170412278 -0.2672554296845636
v -1.0637254455971223 -0.09138454991515377 -0.42451142271140474
vt 0.5390625 0.9453125
vt 0.546875 0.9453125
vt 0.546875 0.8984375
vt 0.5390625 0.8984375
vt 0.484375 0.9453125
vt 0.5390625 0.9453125
vt 0.5390625 0.8984375
vt 0.484375 0.8984375
vt 0.6015625 0.9453125
vt 0.609375 0.9453125
vt 0.609375 0.8984375
vt 0.6015625 0.8984375
vt 0.546875 0.9453125
vt 0.6015625 0.9453125
vt 0.6015625 0.8984375
vt 0.546875 0.8984375
vt 0.546875 0.9453125
vt 0.5390625 0.9453125
vt 0.5390625 1
vt 0.546875 1
vt 0.5546875 1
vt 0.546875 1
vt 0.546875 0.9453125
vt 0.5546875 0.9453125
vn 0.628341090721166 0.6899193637012035 0.359442269775637
vn -0.6208851530148456 0.16636567534280186 0.7660444431189782
vn -0.628341090721166 -0.6899193637012035 -0.359442269775637
vn 0.6208851530148456 -0.16636567534280186 -0.7660444431189782
vn -0.46871003880551493 0.7045095695999166 -0.5328950796029862
vn 0.46871003880551493 -0.7045095695999166 0.5328950796029862
usemtl m_3dbf5aa9-9623-61d0-35d0-b0f0af611c5d
f 52/148/37 55/147/37 53/146/37 50/145/37
f 51/152/38 52/151/38 50/150/38 49/149/38
f 56/156/39 51/155/39 49/154/39 54/153/39
f 55/160/40 56/159/40 54/158/40 53/157/40
f 54/164/41 49/163/41 50/162/41 53/161/41
f 55/168/42 52/167/42 51/166/42 56/165/42
o paddle_right
v 1.0342218141475195 0.11654266228384697 -0.5274246218876409
v 0.3273380870862078 0.892701946447701 -0.12305206839004956
v 0.9756330592968301 0.028478966083857415 -0.46081273693726776
v 0.2687493322355185 0.8046382502477114 -0.056440183439676384
v 0.4049487312130635 0.9134976558655512 -0.027296513000177436
v 1.111832458274375 0.13733837170169721 -0.4316690664977688
v 0.3463599763623742 0.8254339596655617 0.039315371950195854
v 1.0532437034236857 0.04927467550170761 -0.3650571815473955
vt 0.625 0.703125
vt 0.640625 0.703125
vt 0.640625 0.6875
vt 0.625 0.6875
vt 0.484375 0.703125
vt 0.625 0.703125
vt 0.625 0.6875
vt 0.484375 0.6875
vt 0.78125 0.703125
vt 0.796875 0.703125
vt 0.796875 0.6875
vt 0.78125 0.6875
vt 0.640625 0.703125
vt 0.78125 0.703125
vt 0.78125 0.6875
vt 0.640625 0.6875
vt 0.640625 0.703125
vt 0.625 0.703125
vt 0.625 0.84375
vt 0.640625 0.84375
vt 0.65625 0.84375
vt 0.640625 0.84375
vt 0.640625 0.703125
vt 0.65625 0.703125
vn -0.628341090721166 0.6899193637012035 0.359442269775637
vn -0.6208851530148456 -0.16636567534280186 -0.7660444431189782
vn 0.628341090721166 -0.6899193637012035 -0.359442269775637
vn 0.6208851530148456 0.16636567534280186 0.7660444431189782
vn 0.46871003880551493 0.7045095695999166 -0.5328950796029862
vn -0.46871003880551493 -0.7045095695999166 0.5328950796029862
usemtl m_3dbf5aa9-9623-61d0-35d0-b0f0af611c5d
f 60/172/43 63/171/43 61/170/43 58/169/43
f 59/176/44 60/175/44 58/174/44 57/173/44
f 64/180/45 59/179/45 57/178/45 62/177/45
f 63/184/46 64/183/46 62/182/46 61/181/46
f 62/188/47 57/187/47 58/186/47 61/185/47
f 63/192/48 60/191/48 59/190/48 64/189/48
o paddle_right
v 1.2394917101491902 0.172806538684815 -0.6243470775625243
v 0.9645924829586804 0.4746462603040915 -0.46709108453568315
v 1.0637254455971223 -0.09138454991515377 -0.4245114227114045
v 0.7888262184066124 0.21045517170412278 -0.2672554296845635
v 1.0033978050221082 0.4850441150130166 -0.4192133068407471
v 1.2782970322126181 0.18320439339374006 -0.5764692998675881
v 0.8276315404700403 0.22085302641304785 -0.21937765198962733
v 1.1025307676605502 -0.0809866952062287 -0.37663364501646834
vt 0.5390625 0.7890625
vt 0.546875 0.7890625
vt 0.546875 0.7421875
vt 0.5390625 0.7421875
vt 0.484375 0.7890625
vt 0.5390625 0.7890625
vt 0.5390625 0.7421875
vt 0.484375 0.7421875
vt 0.6015625 0.7890625
vt 0.609375 0.7890625
vt 0.609375 0.7421875
vt 0.6015625 0.7421875
vt 0.546875 0.7890625
vt 0.6015625 0.7890625
vt 0.6015625 0.7421875
vt 0.546875 0.7421875
vt 0.546875 0.7890625
vt 0.5390625 0.7890625
vt 0.5390625 0.84375
vt 0.546875 0.84375
vt 0.5546875 0.84375
vt 0.546875 0.84375
vt 0.546875 0.7890625
vt 0.5546875 0.7890625
vn -0.628341090721166 0.6899193637012035 0.359442269775637
vn -0.6208851530148456 -0.16636567534280186 -0.7660444431189782
vn 0.628341090721166 -0.6899193637012035 -0.359442269775637
vn 0.6208851530148456 0.16636567534280186 0.7660444431189782
vn 0.46871003880551493 0.7045095695999166 -0.5328950796029862
vn -0.46871003880551493 -0.7045095695999166 0.5328950796029862
usemtl m_3dbf5aa9-9623-61d0-35d0-b0f0af611c5d
f 68/196/49 71/195/49 69/194/49 66/193/49
f 67/200/50 68/199/50 66/198/50 65/197/50
f 72/204/51 67/203/51 65/202/51 70/201/51
f 71/208/52 72/207/52 70/206/52 69/205/52
f 70/212/53 65/211/53 66/210/53 69/209/53
f 71/216/54 68/215/54 67/214/54 72/213/54
o chest_base
v 0.375 0.6875 0.875
v 0.375 0.6875 0.125
v 0.375 0.1875 0.875
v 0.375 0.1875 0.125
v -0.375 0.6875 0.125
v -0.375 0.6875 0.875
v -0.375 0.1875 0.125
v -0.375 0.1875 0.875
vt 0.09375 0.3125
vt 0.1875 0.3125
vt 0.1875 0.25
vt 0.09375 0.25
vt 0 0.3125
vt 0.09375 0.3125
vt 0.09375 0.25
vt 0 0.25
vt 0.28125 0.3125
vt 0.375 0.3125
vt 0.375 0.25
vt 0.28125 0.25
vt 0.1875 0.3125
vt 0.28125 0.3125
vt 0.28125 0.25
vt 0.1875 0.25
vt 0.1875 0.3125
vt 0.09375 0.3125
vt 0.09375 0.40625
vt 0.1875 0.40625
vt 0.28125 0.40625
vt 0.1875 0.40625
vt 0.1875 0.3125
vt 0.28125 0.3125
vn 0 0 -1
vn 1 0 0
vn 0 0 1
vn -1 0 0
vn 0 1 0
vn 0 -1 0
usemtl m_3dbf5aa9-9623-61d0-35d0-b0f0af611c5d
f 76/220/55 79/219/55 77/218/55 74/217/55
f 75/224/56 76/223/56 74/222/56 73/221/56
f 80/228/57 75/227/57 73/226/57 78/225/57
f 79/232/58 80/231/58 78/230/58 77/229/58
f 78/236/59 73/235/59 74/234/59 77/233/59
f 79/240/60 76/239/60 75/238/60 80/237/60
o chest_lid
v 0.375 0.9375 0.875
v 0.375 0.9375 0.125
v 0.375 0.625 0.875
v 0.375 0.625 0.125
v -0.375 0.9375 0.125
v -0.375 0.9375 0.875
v -0.375 0.625 0.125
v -0.375 0.625 0.875
vt 0.09375 0.4453125
vt 0.1875 0.4453125
vt 0.1875 0.40625
vt 0.09375 0.40625
vt 0 0.4453125
vt 0.09375 0.4453125
vt 0.09375 0.40625
vt 0 0.40625
vt 0.28125 0.4453125
vt 0.375 0.4453125
vt 0.375 0.40625
vt 0.28125 0.40625
vt 0.1875 0.4453125
vt 0.28125 0.4453125
vt 0.28125 0.40625
vt 0.1875 0.40625
vt 0.1875 0.4453125
vt 0.09375 0.4453125
vt 0.09375 0.5390625
vt 0.1875 0.5390625
vt 0.28125 0.5390625
vt 0.1875 0.5390625
vt 0.1875 0.4453125
vt 0.28125 0.4453125
vn 0 0 -1
vn 1 0 0
vn 0 0 1
vn -1 0 0
vn 0 1 0
vn 0 -1 0
usemtl m_3dbf5aa9-9623-61d0-35d0-b0f0af611c5d
f 84/244/61 87/243/61 85/242/61 82/241/61
f 83/248/62 84/247/62 82/246/62 81/245/62
f 88/252/63 83/251/63 81/250/63 86/249/63
f 87/256/64 88/255/64 86/254/64 85/253/64
f 86/260/65 81/259/65 82/258/65 85/257/65
f 87/264/66 84/263/66 83/262/66 88/261/66
o chest_knob
v 0.0625 0.75 0.125
v 0.0625 0.75 0.0625
v 0.0625 0.5 0.125
v 0.0625 0.5 0.0625
v -0.0625 0.75 0.0625
v -0.0625 0.75 0.125
v -0.0625 0.5 0.0625
v -0.0625 0.5 0.125
vt 0.0078125 0.53125
vt 0.0234375 0.53125
vt 0.0234375 0.5
vt 0.0078125 0.5
vt 0 0.53125
vt 0.0078125 0.53125
vt 0.0078125 0.5
vt 0 0.5
vt 0.03125 0.53125
vt 0.046875 0.53125
vt 0.046875 0.5
vt 0.03125 0.5
vt 0.0234375 0.53125
vt 0.03125 0.53125
vt 0.03125 0.5
vt 0.0234375 0.5
vt 0.0234375 0.53125
vt 0.0078125 0.53125
vt 0.0078125 0.5390625
vt 0.0234375 0.5390625
vt 0.0390625 0.5390625
vt 0.0234375 0.5390625
vt 0.0234375 0.53125
vt 0.0390625 0.53125
vn 0 0 -1
vn 1 0 0
vn 0 0 1
vn -1 0 0
vn 0 1 0
vn 0 -1 0
usemtl m_3dbf5aa9-9623-61d0-35d0-b0f0af611c5d
f 92/268/67 95/267/67 93/266/67 90/265/67
f 91/272/68 92/271/68 90/270/68 89/269/68
f 96/276/69 91/275/69 89/274/69 94/273/69
f 95/280/70 96/279/70 94/278/70 93/277/70
f 94/284/71 89/283/71 90/282/71 93/281/71
f 95/288/72 92/287/72 91/286/72 96/285/72